<svg xmlns="http://www.w3.org/2000/svg" baseProfile="full" version="1.1" width="330px" height="330px" style="fill: none; width: 330px; height: 330px;"><path d="" style="stroke-width: 15; stroke-linecap: round; stroke-linejoin: round; stroke: rgb(106, 106, 106); fill: none;"/><path d="" style="stroke-width: 15; stroke-linecap: round; stroke-linejoin: round; stroke: rgb(74, 74, 74); fill: none;"/><path d="M45,285 L45,285 L45,45 L105,45 L45,285 M135,45 L135,45 L75,285 M135,285 L135,285 L75,45 M165,45 L165,45 L165,285 L195,285 M75,105 L75,105 L285,105 M195,45 L195,45 L195,255 M225,285 L225,285 L225,45 L285,45 L225,285 M225,45 L225,45 L285,285 M15,15 L15,15 L15,315 L315,315 L315,15 L15,15 " style="stroke-width: 9; stroke-linecap: round; stroke-linejoin: round; stroke: rgb(255, 255, 255); fill: none;"/></svg>